<svg width="626" height="185" viewBox="0 0 626 185" fill="none" xmlns="http://www.w3.org/2000/svg">
<path d="M237.4 117.2C225.8 117.2 216.76 113.96 210.28 107.48C203.8 100.92 200.56 91.56 200.56 79.4V32H216.16V78.8C216.16 95.28 223.28 103.52 237.52 103.52C251.68 103.52 258.76 95.28 258.76 78.8V32H274.12V79.4C274.12 91.56 270.88 100.92 264.4 107.48C258 113.96 249 117.2 237.4 117.2ZM311.568 45.08V70.64H352.128V83.84H311.568V116H295.968V32H357.288V45.08H311.568ZM423.221 96.56H381.221L372.941 116H356.861L394.661 32H410.021L447.941 116H431.621L423.221 96.56ZM418.061 84.32L402.221 47.6L386.501 84.32H418.061ZM518.144 72.32C522.784 73.84 526.464 76.4 529.184 80C531.904 83.52 533.264 87.92 533.264 93.2C533.264 100.48 530.464 106.12 524.864 110.12C519.264 114.04 511.104 116 500.384 116H458.624V32H497.984C507.904 32 515.544 33.96 520.904 37.88C526.264 41.72 528.944 47.04 528.944 53.84C528.944 58 527.984 61.68 526.064 64.88C524.144 68.08 521.504 70.56 518.144 72.32ZM474.224 44.24V67.4H496.304C501.744 67.4 505.904 66.44 508.784 64.52C511.744 62.52 513.224 59.64 513.224 55.88C513.224 52.04 511.744 49.16 508.784 47.24C505.904 45.24 501.744 44.24 496.304 44.24H474.224ZM499.424 103.76C511.504 103.76 517.544 99.72 517.544 91.64C517.544 83.56 511.504 79.52 499.424 79.52H474.224V103.76H499.424ZM588.793 117.2C580.313 117.2 572.633 115.36 565.753 111.68C558.953 107.92 553.593 102.76 549.673 96.2C545.833 89.64 543.913 82.24 543.913 74C543.913 65.76 545.873 58.36 549.793 51.8C553.713 45.24 559.073 40.12 565.873 36.44C572.753 32.68 580.433 30.8 588.913 30.8C595.793 30.8 602.073 32 607.753 34.4C613.433 36.8 618.233 40.28 622.153 44.84L612.073 54.32C605.993 47.76 598.513 44.48 589.633 44.48C583.873 44.48 578.713 45.76 574.153 48.32C569.593 50.8 566.033 54.28 563.473 58.76C560.913 63.24 559.633 68.32 559.633 74C559.633 79.68 560.913 84.76 563.473 89.24C566.033 93.72 569.593 97.24 574.153 99.8C578.713 102.28 583.873 103.52 589.633 103.52C598.513 103.52 605.993 100.2 612.073 93.56L622.153 103.16C618.233 107.72 613.393 111.2 607.633 113.6C601.953 116 595.673 117.2 588.793 117.2Z" fill="white"/>
<path d="M214.76 138.56C217.128 138.56 219.272 139.104 221.192 140.192C223.112 141.248 224.616 142.752 225.704 144.704C226.792 146.656 227.336 148.88 227.336 151.376C227.336 153.904 226.792 156.144 225.704 158.096C224.616 160.048 223.112 161.568 221.192 162.656C219.304 163.712 217.16 164.24 214.76 164.24C212.712 164.24 210.856 163.824 209.192 162.992C207.56 162.128 206.216 160.88 205.16 159.248V173.312H201.752V138.752H205.016V143.744C206.04 142.08 207.384 140.8 209.048 139.904C210.744 139.008 212.648 138.56 214.76 138.56ZM214.52 161.216C216.28 161.216 217.88 160.816 219.32 160.016C220.76 159.184 221.88 158.016 222.68 156.512C223.512 155.008 223.928 153.296 223.928 151.376C223.928 149.456 223.512 147.76 222.68 146.288C221.88 144.784 220.76 143.616 219.32 142.784C217.88 141.952 216.28 141.536 214.52 141.536C212.728 141.536 211.112 141.952 209.672 142.784C208.264 143.616 207.144 144.784 206.312 146.288C205.512 147.76 205.112 149.456 205.112 151.376C205.112 153.296 205.512 155.008 206.312 156.512C207.144 158.016 208.264 159.184 209.672 160.016C211.112 160.816 212.728 161.216 214.52 161.216ZM234.283 128.384H237.691V164H234.283V128.384ZM256.006 138.56C259.302 138.56 261.83 139.392 263.59 141.056C265.35 142.688 266.23 145.12 266.23 148.352V164H262.966V160.064C262.198 161.376 261.062 162.4 259.558 163.136C258.086 163.872 256.326 164.24 254.278 164.24C251.462 164.24 249.222 163.568 247.558 162.224C245.894 160.88 245.062 159.104 245.062 156.896C245.062 154.752 245.83 153.024 247.366 151.712C248.934 150.4 251.414 149.744 254.806 149.744H262.822V148.208C262.822 146.032 262.214 144.384 260.998 143.264C259.782 142.112 258.006 141.536 255.67 141.536C254.07 141.536 252.534 141.808 251.062 142.352C249.59 142.864 248.326 143.584 247.27 144.512L245.734 141.968C247.014 140.88 248.55 140.048 250.342 139.472C252.134 138.864 254.022 138.56 256.006 138.56ZM254.806 161.552C256.726 161.552 258.374 161.12 259.75 160.256C261.126 159.36 262.15 158.08 262.822 156.416V152.288H254.902C250.582 152.288 248.422 153.792 248.422 156.8C248.422 158.272 248.982 159.44 250.102 160.304C251.222 161.136 252.79 161.552 254.806 161.552ZM288.35 138.56C291.518 138.56 294.03 139.488 295.886 141.344C297.774 143.168 298.718 145.84 298.718 149.36V164H295.31V149.696C295.31 147.072 294.654 145.072 293.342 143.696C292.03 142.32 290.158 141.632 287.726 141.632C285.006 141.632 282.846 142.448 281.246 144.08C279.678 145.68 278.894 147.904 278.894 150.752V164H275.486V138.752H278.75V143.408C279.678 141.872 280.958 140.688 282.59 139.856C284.254 138.992 286.174 138.56 288.35 138.56ZM320.835 138.56C324.003 138.56 326.515 139.488 328.371 141.344C330.259 143.168 331.203 145.84 331.203 149.36V164H327.795V149.696C327.795 147.072 327.139 145.072 325.827 143.696C324.515 142.32 322.643 141.632 320.211 141.632C317.491 141.632 315.331 142.448 313.731 144.08C312.163 145.68 311.379 147.904 311.379 150.752V164H307.971V138.752H311.235V143.408C312.163 141.872 313.443 140.688 315.075 139.856C316.739 138.992 318.659 138.56 320.835 138.56ZM362.533 152.432H341.413C341.605 155.056 342.613 157.184 344.437 158.816C346.261 160.416 348.565 161.216 351.349 161.216C352.917 161.216 354.357 160.944 355.669 160.4C356.981 159.824 358.117 158.992 359.077 157.904L360.997 160.112C359.877 161.456 358.469 162.48 356.773 163.184C355.109 163.888 353.269 164.24 351.253 164.24C348.661 164.24 346.357 163.696 344.341 162.608C342.357 161.488 340.805 159.952 339.685 158C338.565 156.048 338.005 153.84 338.005 151.376C338.005 148.912 338.533 146.704 339.589 144.752C340.677 142.8 342.149 141.28 344.005 140.192C345.893 139.104 348.005 138.56 350.341 138.56C352.677 138.56 354.773 139.104 356.629 140.192C358.485 141.28 359.941 142.8 360.997 144.752C362.053 146.672 362.581 148.88 362.581 151.376L362.533 152.432ZM350.341 141.488C347.909 141.488 345.861 142.272 344.197 143.84C342.565 145.376 341.637 147.392 341.413 149.888H359.317C359.093 147.392 358.149 145.376 356.485 143.84C354.853 142.272 352.805 141.488 350.341 141.488ZM372.782 143.696C373.582 142 374.766 140.72 376.334 139.856C377.934 138.992 379.902 138.56 382.238 138.56V141.872L381.422 141.824C378.766 141.824 376.686 142.64 375.182 144.272C373.678 145.904 372.926 148.192 372.926 151.136V164H369.518V138.752H372.782V143.696Z" fill="white"/>
<path d="M65.25 90.75L87 112.5L159.5 40" stroke="#03A63C" stroke-width="16" stroke-linecap="round" stroke-linejoin="round"/>
<path d="M152.25 98V148.75C152.25 152.596 150.722 156.284 148.003 159.003C145.284 161.722 141.596 163.25 137.75 163.25H36.25C32.4044 163.25 28.7162 161.722 25.997 159.003C23.2777 156.284 21.75 152.596 21.75 148.75V47.25C21.75 43.4044 23.2777 39.7162 25.997 36.997C28.7162 34.2777 32.4044 32.75 36.25 32.75H116" stroke="#03A63C" stroke-width="16" stroke-linecap="round" stroke-linejoin="round"/>
</svg>
