<svg width="233" height="69" viewBox="0 0 233 69" fill="none" xmlns="http://www.w3.org/2000/svg">
<path d="M88.3614 43.7124C84.0438 43.7124 80.6791 42.504 78.2672 40.0872C75.8553 37.6404 74.6494 34.1494 74.6494 29.6141V11.9351H80.4557V29.3903C80.4557 35.5369 83.1058 38.6102 88.406 38.6102C93.6764 38.6102 96.3117 35.5369 96.3117 29.3903V11.9351H102.029V29.6141C102.029 34.1494 100.823 37.6404 98.4109 40.0872C96.0288 42.504 92.6789 43.7124 88.3614 43.7124ZM115.967 16.8136V26.3468H131.064V31.2701H115.967V43.2649H110.161V11.9351H132.984V16.8136H115.967ZM157.525 36.0143H141.892L138.81 43.2649H132.825L146.895 11.9351H152.612L166.726 43.2649H160.651L157.525 36.0143ZM155.604 31.4491L149.708 17.7535L143.857 31.4491H155.604ZM192.856 26.9734C194.583 27.5403 195.952 28.4951 196.965 29.8379C197.977 31.1507 198.483 32.7918 198.483 34.7611C198.483 37.4763 197.441 39.5799 195.357 41.0718C193.272 42.5339 190.235 43.2649 186.245 43.2649H170.702V11.9351H185.352C189.044 11.9351 191.888 12.6662 193.883 14.1282C195.878 15.5604 196.875 17.5447 196.875 20.0809C196.875 21.6324 196.518 23.005 195.803 24.1985C195.089 25.392 194.106 26.317 192.856 26.9734ZM176.508 16.5003V25.1384H184.727C186.751 25.1384 188.3 24.7803 189.372 24.0642C190.473 23.3183 191.024 22.2441 191.024 20.8417C191.024 19.4095 190.473 18.3354 189.372 17.6193C188.3 16.8733 186.751 16.5003 184.727 16.5003H176.508ZM185.888 38.6997C190.384 38.6997 192.632 37.1929 192.632 34.1793C192.632 31.1656 190.384 29.6588 185.888 29.6588H176.508V38.6997H185.888ZM219.151 43.7124C215.995 43.7124 213.137 43.0262 210.576 41.6536C208.045 40.2513 206.05 38.3267 204.591 35.88C203.161 33.4333 202.447 30.6733 202.447 27.6C202.447 24.5267 203.176 21.7667 204.635 19.32C206.094 16.8733 208.089 14.9637 210.62 13.5911C213.181 12.1888 216.04 11.4876 219.196 11.4876C221.757 11.4876 224.094 11.9351 226.208 12.8303C228.323 13.7254 230.109 15.0234 231.568 16.7241L227.816 20.2599C225.553 17.8132 222.769 16.5898 219.464 16.5898C217.32 16.5898 215.4 17.0673 213.702 18.0221C212.005 18.947 210.68 20.245 209.727 21.9159C208.774 23.5868 208.298 25.4815 208.298 27.6C208.298 29.7185 208.774 31.6132 209.727 33.2841C210.68 34.955 212.005 36.2679 213.702 37.2227C215.4 38.1477 217.32 38.6102 219.464 38.6102C222.769 38.6102 225.553 37.3719 227.816 34.8954L231.568 38.4759C230.109 40.1767 228.308 41.4746 226.164 42.3697C224.05 43.2649 221.712 43.7124 219.151 43.7124Z" fill="#363636"/>
<path d="M79.9347 51.6791C80.816 51.6791 81.614 51.882 82.3287 52.2878C83.0433 52.6817 83.6031 53.2426 84.0081 53.9707C84.413 54.6987 84.6155 55.5282 84.6155 56.4592C84.6155 57.402 84.413 58.2375 84.0081 58.9655C83.6031 59.6936 83.0433 60.2605 82.3287 60.6663C81.6259 61.0601 80.8279 61.2571 79.9347 61.2571C79.1724 61.2571 78.4816 61.1019 77.8622 60.7916C77.2548 60.4694 76.7545 60.0039 76.3615 59.3952V64.6407H75.093V51.7507H76.3079V53.6126C76.689 52.992 77.1893 52.5146 77.8086 52.1804C78.4399 51.8462 79.1486 51.6791 79.9347 51.6791ZM79.8453 60.1292C80.5004 60.1292 81.0959 59.98 81.6319 59.6816C82.1679 59.3713 82.5847 58.9357 82.8825 58.3747C83.1922 57.8138 83.347 57.1753 83.347 56.4592C83.347 55.743 83.1922 55.1105 82.8825 54.5615C82.5847 54.0005 82.1679 53.5649 81.6319 53.2546C81.0959 52.9443 80.5004 52.7891 79.8453 52.7891C79.1783 52.7891 78.5768 52.9443 78.0409 53.2546C77.5168 53.5649 77.0999 54.0005 76.7903 54.5615C76.4925 55.1105 76.3436 55.743 76.3436 56.4592C76.3436 57.1753 76.4925 57.8138 76.7903 58.3747C77.0999 58.9357 77.5168 59.3713 78.0409 59.6816C78.5768 59.98 79.1783 60.1292 79.8453 60.1292ZM87.2012 47.8838H88.4697V61.1676H87.2012V47.8838ZM95.2866 51.6791C96.5134 51.6791 97.4543 51.9894 98.1094 52.6101C98.7645 53.2188 99.092 54.1258 99.092 55.3313V61.1676H97.8771V59.6995C97.5913 60.1889 97.1685 60.5708 96.6087 60.8453C96.0608 61.1198 95.4057 61.2571 94.6434 61.2571C93.5953 61.2571 92.7616 61.0064 92.1422 60.5052C91.5229 60.0039 91.2132 59.3415 91.2132 58.518C91.2132 57.7183 91.499 57.0738 92.0707 56.5845C92.6544 56.0951 93.5774 55.8505 94.8399 55.8505H97.8235V55.2776C97.8235 54.466 97.5972 53.8513 97.1446 53.4336C96.692 53.0039 96.031 52.7891 95.1615 52.7891C94.566 52.7891 93.9943 52.8905 93.4464 53.0934C92.8985 53.2844 92.4281 53.5529 92.035 53.8991L91.4633 52.9502C91.9397 52.5444 92.5114 52.2341 93.1784 52.0193C93.8454 51.7925 94.5481 51.6791 95.2866 51.6791ZM94.8399 60.2545C95.5546 60.2545 96.168 60.0934 96.6801 59.7711C97.1923 59.437 97.5734 58.9596 97.8235 58.3389V56.7993H94.8757C93.2678 56.7993 92.4638 57.3603 92.4638 58.4822C92.4638 59.0312 92.6722 59.4668 93.0891 59.7891C93.506 60.0994 94.0896 60.2545 94.8399 60.2545ZM107.325 51.6791C108.504 51.6791 109.439 52.0252 110.13 52.7175C110.833 53.3978 111.184 54.3944 111.184 55.7072V61.1676H109.916V55.8326C109.916 54.8539 109.672 54.1079 109.183 53.5947C108.695 53.0815 107.998 52.8249 107.093 52.8249C106.081 52.8249 105.277 53.1292 104.681 53.7379C104.097 54.3347 103.806 55.1642 103.806 56.2264V61.1676H102.537V51.7507H103.752V53.4873C104.097 52.9144 104.574 52.4728 105.181 52.1625C105.801 51.8403 106.515 51.6791 107.325 51.6791ZM119.416 51.6791C120.595 51.6791 121.53 52.0252 122.221 52.7175C122.924 53.3978 123.275 54.3944 123.275 55.7072V61.1676H122.007V55.8326C122.007 54.8539 121.763 54.1079 121.274 53.5947C120.786 53.0815 120.089 52.8249 119.184 52.8249C118.172 52.8249 117.368 53.1292 116.772 53.7379C116.188 54.3347 115.897 55.1642 115.897 56.2264V61.1676H114.628V51.7507H115.843V53.4873C116.188 52.9144 116.665 52.4728 117.272 52.1625C117.892 51.8403 118.606 51.6791 119.416 51.6791ZM134.936 56.853H127.075C127.147 57.8317 127.522 58.6254 128.201 59.2341C128.88 59.8308 129.737 60.1292 130.774 60.1292C131.357 60.1292 131.893 60.0278 132.382 59.8249C132.87 59.61 133.293 59.2997 133.65 58.8939L134.365 59.7174C133.948 60.2187 133.424 60.6006 132.793 60.8632C132.173 61.1258 131.488 61.2571 130.738 61.2571C129.773 61.2571 128.916 61.0542 128.165 60.6484C127.427 60.2307 126.849 59.6578 126.432 58.9297C126.015 58.2017 125.807 57.3782 125.807 56.4592C125.807 55.5401 126.003 54.7166 126.397 53.9886C126.802 53.2605 127.349 52.6936 128.04 52.2878C128.743 51.882 129.529 51.6791 130.398 51.6791C131.268 51.6791 132.048 51.882 132.739 52.2878C133.43 52.6936 133.972 53.2605 134.365 53.9886C134.758 54.7047 134.954 55.5282 134.954 56.4592L134.936 56.853ZM130.398 52.7712C129.493 52.7712 128.731 53.0636 128.112 53.6484C127.504 54.2213 127.159 54.9732 127.075 55.9042H133.739C133.656 54.9732 133.305 54.2213 132.685 53.6484C132.078 53.0636 131.316 52.7712 130.398 52.7712ZM138.751 53.5947C139.049 52.9622 139.49 52.4848 140.073 52.1625C140.669 51.8403 141.401 51.6791 142.271 51.6791V52.9144L141.967 52.8965C140.978 52.8965 140.204 53.2009 139.644 53.8096C139.085 54.4182 138.805 55.2716 138.805 56.3696V61.1676H137.536V51.7507H138.751V53.5947Z" fill="#363636"/>
<path d="M24.2863 33.8473L32.3818 41.9595L59.3666 14.9189" stroke="#03A63C" stroke-width="6" stroke-linecap="round" stroke-linejoin="round"/>
<path d="M56.6681 36.5514V55.4797C56.6681 56.9142 56.0994 58.2897 55.0874 59.3038C54.0754 60.3179 52.7027 60.8878 51.2712 60.8878H13.4924C12.0611 60.8878 10.6883 60.3179 9.67621 59.3038C8.66408 58.2897 8.09546 56.9142 8.09546 55.4797V17.623C8.09546 16.1887 8.66408 14.8131 9.67621 13.7989C10.6883 12.7847 12.0611 12.2149 13.4924 12.2149H43.1757" stroke="#03A63C" stroke-width="6" stroke-linecap="round" stroke-linejoin="round"/>
</svg>
